<!-- Generator: Adobe Illustrator 18.1.1, SVG Export Plug-In  -->
<svg version="1.0"
	 xmlns="http://www.w3.org/2000/svg" xmlns:xlink="http://www.w3.org/1999/xlink" xmlns:a="http://ns.adobe.com/AdobeSVGViewerExtensions/3.0/"
	 x="0px" y="0px" width="420.3px" height="491.3px" viewBox="0 0 420.3 491.3" style="enable-background:new 0 0 420.3 491.3;"
	 xml:space="preserve">
<style type="text/css">
	.st0{fill:#333333;stroke:#ffffff;stroke-miterlimit:10;}
	.st1{fill:none;stroke:#ffffff;stroke-miterlimit:10;}
</style>
<defs>
</defs>
<g id="panels_1_">
	<polygon class="st0" points="163.3,24 259,23.8 275,130.5 282,466.5 266.5,471.3 230.5,469 186.3,469 164,260.8 	"/>
	<polygon class="st0" points="147.5,38.5 113.5,55.5 69.5,80 45.5,129.5 26,190.5 6.5,295 1,387.5 0.5,436.5 2,448 1,461.3
		2.5,487.3 9,489.8 35.5,490.5 61,488.3 62,486.8 62.8,449 62.3,445.3 62,411 65.5,387.8 65,359.8 70.8,321.5 75.5,295.3
		75.5,275.8 83.3,252.3 92.5,219.8 91.8,270.5 91,291.5 91.5,311.5 90.5,375.8 91.5,405.3 89.8,431.5 90.3,477 102.8,478.5
		117.5,478.3 131.3,479.5 154,480.3 170.8,481.5 197.3,480.8 198.5,383.5 200.3,293.8 199,255.8 201.3,199 205,145.3 207,102.3
		221.3,63.3 220,57.8 214.8,53.8 197.5,42.3 175.3,20.3 164,6.5 	"/>
	<polygon class="st0" points="347,78 333.3,70.5 304.5,55.8 289,48.5 281.3,46.5 242.3,162 230.8,187.5 238.5,240.3 247.3,364.5
		270,479.3 283.3,480.3 315.8,479.3 324.3,478.8 325.5,441 325.5,358.3 324.3,278 322.8,232 323.3,224.3 326.3,223.3 332,245.5
		341.8,288 349.3,335 355.5,414.5 357.8,474 358.3,488 378,490.8 415,489.3 419.5,487 419.8,450.5 419.5,415.3 416,346 409.5,280.8
		398,215.5 381,151.3 361,102.3 	"/>
	<polygon class="st0" points="285.5,46 296,60 311.5,72.5 315,82.8 325.8,98.5 325.5,103.5 301.5,121 270,147.5 247.5,169.5
		235.3,186.8 234,201.5 239.3,218 257.8,238.3 264.3,247.5 267.5,260.5 264.5,281.8 254.3,304.5 250.5,321.8 251.5,334 259.3,344.8
		271,353.8 286.8,368 312.8,400.5 324,414.3 314.3,427.8 298,446.3 278,466 270,479.3 260.8,455.3 247,412.3 240.3,376.3
		230.8,315.3 229.8,286.8 228.5,261.3 226.5,216.5 226.3,194.8 238,146 247,124.5 243.8,113.8 247.5,97.3 249.3,91.8 247.3,85
		248.8,58 252,50.3 250.8,44 236.5,39.5 206,39.3 195,40.3 183,27.8 172.5,17.5 164.3,8.5 167.8,4.3 177,1.3 204,1 228,0.5
		249.3,4.8 261,11 272.3,24 	"/>
</g>
<g id="details_1_">
	<polyline class="st1" points="145.5,39.8 148,49.5 163.8,72.3 184.5,87.8 201.8,99.8 207,102.3 	"/>
	<polyline class="st1" points="314,82.5 303.3,94.8 279.5,107.8 264.8,127.3 243,152.5 232.3,176.3 227.5,201.8 232.5,222.3
		243.3,237.5 251.5,249.8 253.8,264.5 253.8,280 246.5,313.3 240.5,337 248,356.3 271.5,382 282.8,392.3 308,434 	"/>
	<polyline class="st1" points="92.3,446 125.3,446.8 168.5,448.3 196.3,448.8 	"/>
	<polyline class="st1" points="257.8,446.3 269.3,431.3 289.3,403.8 	"/>
	<polyline class="st1" points="298,446.3 317.3,447 326.3,447 	"/>
	<polyline class="st1" points="357.5,452.3 374,451.3 401.3,450.8 419.8,450.5 	"/>
	<polyline class="st1" points="2,448 9.5,451.3 35.8,450.5 54.5,448 63.3,448 	"/>
	<polyline class="st1" points="69.5,80 78,95 93.5,128.3 97,170.3 97.8,197.5 92.5,219.8 	"/>
	<polyline class="st1" points="347,78 339,87 328.3,108 317.5,158 320.3,186.5 323,220.3 323.3,224.3 	"/>
	<polyline class="st1" points="251.7,47.7 251.5,59.8 252,70.8 257.2,81.2 264.5,99.7 276.2,111 	"/>
</g>
<g>
	<circle cx="22.7" cy="475.3" r="2.7"/>
	<circle cx="16.3" cy="476.3" r="2.7"/>
	<circle cx="9.9" cy="478.7" r="2.7"/>
	<circle cx="7.2" cy="483.9" r="2.7"/>
	<circle cx="14.3" cy="485.3" r="2.7"/>
	<circle cx="21.5" cy="485.8" r="2.7"/>
	<circle cx="28.6" cy="485.7" r="2.7"/>
	<circle cx="35.8" cy="485.7" r="2.7"/>
	<circle cx="43" cy="485.3" r="2.7"/>
	<circle cx="50.1" cy="484.8" r="2.7"/>
	<circle cx="57.3" cy="483.9" r="2.7"/>
	<circle cx="56.3" cy="477.5" r="2.7"/>
	<circle cx="49.7" cy="475.8" r="2.7"/>
	<circle cx="43.2" cy="474.9" r="2.7"/>
</g>
<g>
	<circle cx="97.9" cy="238.8" r="2.7"/>
	<circle cx="99.3" cy="250.6" r="2.7"/>
	<circle cx="98.9" cy="262.5" r="2.7"/>
	<circle cx="98.1" cy="274.4" r="2.7"/>
	<circle cx="98.4" cy="286.2" r="2.7"/>
	<circle cx="97.1" cy="297.1" r="2.7"/>
	<circle cx="96.8" cy="308.7" r="2.7"/>
	<circle cx="97.3" cy="321" r="2.7"/>
	<circle cx="96.6" cy="332.6" r="2.7"/>
	<circle cx="97.3" cy="343.6" r="2.7"/>
	<circle cx="97.8" cy="357.4" r="2.7"/>
	<circle cx="97.9" cy="369.3" r="2.7"/>
	<circle cx="97.6" cy="381.2" r="2.7"/>
	<circle cx="97.6" cy="393" r="2.7"/>
	<circle cx="97.8" cy="404.9" r="2.7"/>
	<circle cx="97.5" cy="416.8" r="2.7"/>
	<circle cx="97.8" cy="428.6" r="2.7"/>
	<circle cx="95.9" cy="440.5" r="2.7"/>
</g>
<g>
	<circle cx="191.5" cy="460" r="2.7"/>
	<circle cx="192" cy="448.6" r="2.7"/>
	<circle cx="191.8" cy="437.1" r="2.7"/>
	<circle cx="192" cy="425.7" r="2.7"/>
	<circle cx="191.8" cy="414.3" r="2.7"/>
	<circle cx="191.8" cy="402.9" r="2.7"/>
	<circle cx="191.8" cy="391.4" r="2.7"/>
	<circle cx="192" cy="380" r="2.7"/>
	<circle cx="191.8" cy="368.6" r="2.7"/>
	<circle cx="191.5" cy="357.2" r="2.7"/>
	<circle cx="191.5" cy="345.7" r="2.7"/>
	<circle cx="191.5" cy="334.3" r="2.7"/>
	<circle cx="192.5" cy="322.9" r="2.7"/>
	<circle cx="192.3" cy="311.4" r="2.7"/>
	<circle cx="192" cy="300" r="2.7"/>
	<circle cx="192.5" cy="288.6" r="2.7"/>
	<circle cx="192" cy="277.2" r="2.7"/>
	<circle cx="192.8" cy="265.7" r="2.7"/>
	<circle cx="192.5" cy="254.3" r="2.7"/>
	<circle cx="192.5" cy="242.9" r="2.7"/>
	<circle cx="192.5" cy="231.5" r="2.7"/>
	<circle cx="192.3" cy="220" r="2.7"/>
	<circle cx="192.8" cy="208.6" r="2.7"/>
	<circle cx="194" cy="197" r="2.7"/>
	<circle cx="195.2" cy="185.7" r="2.7"/>
	<circle cx="195.7" cy="174.3" r="2.7"/>
	<circle cx="196.2" cy="162.9" r="2.7"/>
	<circle cx="196.9" cy="151.5" r="2.7"/>
	<circle cx="197.4" cy="140" r="2.7"/>
	<circle cx="197" cy="129.2" r="2.7"/>
	<circle cx="199" cy="116" r="2.7"/>
	<circle cx="201" cy="105.8" r="2.7"/>
</g>
<g>
	<circle cx="274.8" cy="114" r="2.7"/>
	<circle cx="269" cy="121" r="2.7"/>
	<circle cx="261.5" cy="128.5" r="2.7"/>
	<circle cx="255" cy="137" r="2.7"/>
	<circle cx="248.5" cy="144" r="2.7"/>
	<circle cx="243" cy="152.5" r="2.7"/>
	<circle cx="239.3" cy="160.3" r="2.7"/>
	<circle cx="235.7" cy="169" r="2.7"/>
	<circle cx="230" cy="180" r="2.7"/>
	<circle cx="229" cy="190.5" r="2.7"/>
	<circle cx="227.5" cy="200.5" r="2.7"/>
	<circle cx="229.5" cy="208.3" r="2.7"/>
	<circle cx="230.5" cy="215.8" r="2.7"/>
	<circle cx="234.5" cy="226" r="2.7"/>
	<circle cx="241.5" cy="235.8" r="2.7"/>
	<circle cx="247" cy="245.5" r="2.7"/>
	<circle cx="250.5" cy="257" r="2.7"/>
	<circle cx="252.5" cy="266.5" r="2.7"/>
	<circle cx="253" cy="276.5" r="2.7"/>
	<circle cx="251" cy="287.5" r="2.7"/>
	<circle cx="248.5" cy="299" r="2.7"/>
	<circle cx="246.5" cy="306" r="2.7"/>
	<circle cx="243.5" cy="315.5" r="2.7"/>
	<circle cx="240.5" cy="324.5" r="2.7"/>
	<circle cx="240.5" cy="334.3" r="2.7"/>
	<circle cx="242.7" cy="345" r="2.7"/>
	<circle cx="246.3" cy="353.3" r="2.7"/>
	<circle cx="252.3" cy="361.3" r="2.7"/>
	<circle cx="258.8" cy="369.2" r="2.7"/>
	<circle cx="265.7" cy="377.3" r="2.7"/>
	<circle cx="277" cy="386.7" r="2.7"/>
	<circle cx="285.7" cy="397.7" r="2.7"/>
</g>
<g>
	<circle cx="320" cy="441.3" r="2.7"/>
	<circle cx="320.7" cy="429.3" r="2.7"/>
	<circle cx="321" cy="417.3" r="2.7"/>
	<circle cx="321.3" cy="405.2" r="2.7"/>
	<circle cx="320" cy="393.2" r="2.7"/>
	<circle cx="320" cy="381.1" r="2.7"/>
	<circle cx="319.3" cy="369.1" r="2.7"/>
	<circle cx="319.3" cy="357.1" r="2.7"/>
	<circle cx="319.3" cy="345" r="2.7"/>
	<circle cx="319.3" cy="333" r="2.7"/>
	<circle cx="319.7" cy="320.9" r="2.7"/>
	<circle cx="318.7" cy="308.9" r="2.7"/>
	<circle cx="319" cy="296.9" r="2.7"/>
	<circle cx="318.3" cy="284.8" r="2.7"/>
	<circle cx="318" cy="272.8" r="2.7"/>
	<circle cx="316.7" cy="260.7" r="2.7"/>
	<circle cx="316.7" cy="248.7" r="2.7"/>
	<circle cx="317" cy="236.7" r="2.7"/>
</g>
<g>
	<circle cx="380" cy="472.3" r="2.7"/>
	<circle cx="372" cy="475" r="2.7"/>
	<circle cx="365" cy="476.3" r="2.7"/>
	<circle cx="363" cy="483.3" r="2.7"/>
	<circle cx="369.7" cy="485.3" r="2.7"/>
	<circle cx="377.7" cy="486.3" r="2.7"/>
	<circle cx="386.7" cy="486.3" r="2.7"/>
	<circle cx="393.7" cy="485.3" r="2.7"/>
	<circle cx="400.7" cy="484.7" r="2.7"/>
	<circle cx="407.3" cy="484.3" r="2.7"/>
	<circle cx="415" cy="483" r="2.7"/>
	<circle cx="413.7" cy="476.7" r="2.7"/>
	<circle cx="406.7" cy="473.7" r="2.7"/>
	<circle cx="398.7" cy="471.7" r="2.7"/>
</g>
</svg>
